<svg width="346" height="469" viewBox="0 0 346 469" fill="none" xmlns="http://www.w3.org/2000/svg">
<path d="M289.222 107.297L279.263 102.016L280.008 101.62L289.967 106.902L289.222 107.297Z" fill="#CBCBCB"/>
<path d="M280.535 107.297L279.79 106.902L289.749 101.62L290.494 102.016L280.535 107.297Z" fill="#CBCBCB"/>
<path d="M206.412 66.3621L205.932 67.2984L208.745 68.7376L209.225 67.8013L206.412 66.3621Z" fill="#CBCBCB"/>
<path d="M264.742 97.3834L259.142 94.5188L259.622 93.5825L265.222 96.447L264.742 97.3834ZM253.542 91.6543L247.943 88.7895L248.423 87.8531L254.023 90.7179L253.542 91.6543ZM242.343 85.9249L236.743 83.0604L237.224 82.124L242.823 84.9886L242.343 85.9249ZM231.144 80.1958L225.544 77.3313L226.024 76.3949L231.624 79.2594L231.144 80.1958ZM219.944 74.4667L214.344 71.6022L214.825 70.6658L220.425 73.5304L219.944 74.4667Z" fill="#CBCBCB"/>
<path d="M270.822 99.3116L270.341 100.248L273.155 101.687L273.635 100.751L270.822 99.3116Z" fill="#CBCBCB"/>
<path d="M58.3999 136.785C58.3999 137.114 58.3892 137.44 58.3679 137.763C58.2483 139.626 57.7767 141.45 56.9781 143.139C56.9719 143.153 56.9646 143.166 56.9585 143.18C56.9213 143.258 56.8831 143.336 56.8439 143.414C56.6064 143.891 56.3429 144.355 56.0546 144.804C54.7377 146.865 52.9327 148.569 50.7992 149.768C48.6656 150.967 46.2691 151.622 43.8215 151.677L43.9691 160.148L45.8934 159.136L46.237 159.789L43.9836 160.973L44.259 176.706L44.2621 176.916L42.7743 177.247L42.7773 177.036L43.2458 151.678C41.2757 151.65 39.3309 151.231 37.5242 150.446C35.7175 149.661 34.085 148.526 32.7214 147.106C32.6275 147.01 32.5347 146.91 32.4439 146.811L32.4335 146.799C31.2974 145.563 30.3786 144.143 29.7158 142.601C29.7302 142.617 29.7457 142.633 29.7602 142.649C28.2622 139.152 28.1606 135.216 29.4762 131.646C30.7918 128.077 33.425 125.145 36.8362 123.451C36.8878 123.425 36.9405 123.401 36.992 123.375C40.3664 121.752 44.2282 121.455 47.812 122.541C51.3958 123.627 54.4401 126.018 56.3414 129.239C56.4323 129.392 56.52 129.547 56.6046 129.704C57.7856 131.878 58.4028 134.312 58.3999 136.785Z" fill="#E5E5E5"/>
<path d="M56.3915 143.188C67.1923 143.188 75.9482 134.447 75.9482 123.664C75.9482 112.882 67.1923 104.141 56.3915 104.141C45.5906 104.141 36.8347 112.882 36.8347 123.664C36.8347 134.447 45.5906 143.188 56.3915 143.188Z" fill="#E5E5E5"/>
<path opacity="0.2" d="M41.9514 110.624C40.1272 114.884 39.8797 119.653 41.2532 124.078C42.6267 128.503 45.5317 132.297 49.449 134.781C53.3663 137.265 58.0407 138.277 62.6369 137.637C67.2332 136.997 71.4517 134.747 74.5387 131.287C73.4243 133.89 71.7565 136.22 69.6507 138.115C67.545 140.01 65.0516 141.426 62.3434 142.263C59.6353 143.101 56.777 143.341 53.9667 142.967C51.1564 142.592 48.4613 141.612 46.0681 140.095C43.6748 138.577 41.6406 136.558 40.1065 134.178C38.5724 131.798 37.575 129.113 37.1834 126.31C36.7918 123.506 37.0154 120.652 37.8387 117.943C38.662 115.235 40.0653 112.737 41.9514 110.624Z" fill="black"/>
<path d="M57.4495 178.054L55.4521 177.494L55.4563 177.28L56.0549 144.804L56.0848 143.185L56.0854 143.138L56.1901 137.464L56.3416 129.24V129.239L56.4445 123.665H56.4996L56.6049 129.704L56.742 137.564L56.8402 143.141V143.183L56.8443 143.413V143.414L57.0341 154.286L57.0538 155.366L57.4459 177.837L57.4495 178.054Z" fill="#3F3D56"/>
<path d="M59.5555 152.96L56.3228 154.659L56.7733 155.514L60.0061 153.815L59.5555 152.96Z" fill="#3F3D56"/>
<path d="M309.904 60.4791C285.22 59.0223 260.462 59.4022 235.835 61.6158C223.965 62.6869 211.906 63.8439 200.255 66.4287C190.871 68.5107 179.98 72.0296 174.133 80.2257C172.908 81.8771 172.083 83.789 171.721 85.8117C171.36 87.8345 171.472 89.9133 172.049 91.8855C173.444 96.5578 176.912 100.447 180.605 103.493C189.106 110.504 199.653 114.584 209.075 120.154C226.277 130.323 242.02 144.03 252.125 161.443C256.572 169.105 260.802 179.293 255.85 187.736C251 196.008 240.171 198.857 231.341 200.201C220.272 201.885 208.871 201.429 197.756 200.485C185.571 199.351 173.454 197.579 161.454 195.177C137.947 190.671 114.653 184.939 90.8191 182.332C78.8685 180.929 66.8172 180.581 54.8054 181.293C43.9573 182.023 33.0163 183.736 22.8253 187.641C14.9723 190.65 6.60134 195.203 2.35944 202.796C-1.72955 210.114 -0.134717 218.555 4.31769 225.307C9.67485 233.432 18.0286 239 26.7137 243.069C36.6025 247.702 47.1795 250.706 57.77 253.26C63.1412 254.555 68.5415 255.726 73.9423 256.891C75.0689 257.134 75.5503 255.407 74.4196 255.163C63.5285 252.813 52.6059 250.456 41.9853 247.055C32.157 243.908 22.0991 239.876 14.0506 233.268C7.53942 227.921 1.34858 220.112 1.7329 211.234C2.12033 202.283 9.6428 196.034 17.0158 192.187C26.2301 187.38 36.6987 185.038 46.9568 183.814C58.7025 182.508 70.5477 182.347 82.3247 183.334C106.103 185.14 129.349 190.548 152.663 195.264C175.311 199.846 198.666 204.089 221.877 202.914C231.076 202.448 240.934 201.132 249.057 196.496C252.776 194.374 256.129 191.38 258.019 187.485C259.722 183.779 260.261 179.645 259.564 175.627C258.247 166.802 252.996 158.619 247.757 151.589C242.014 143.965 235.352 137.075 227.922 131.077C219.767 124.525 210.974 118.807 201.676 114.009C196.745 111.417 191.744 108.925 187.045 105.923C182.54 103.045 178.095 99.5816 175.344 94.9092C172.964 90.868 172.527 86.2557 175.006 82.157C177.513 78.0115 181.832 75.1202 186.092 73.0074C196.354 67.9169 208.286 66.5543 219.514 65.1581C243.623 62.1704 267.919 60.9611 292.206 61.5398C298.11 61.6784 304.009 61.9224 309.904 62.2717C311.059 62.3395 311.055 60.5467 309.904 60.4791Z" fill="black"/>
<path d="M294.245 3.01876L297.974 0.0416934C295.077 -0.277336 293.887 1.29971 293.4 2.54794C291.137 1.60989 288.674 2.83925 288.674 2.83925L296.134 5.54295C295.758 4.53942 295.102 3.6638 294.245 3.01876Z" fill="#3F3D56"/>
<path d="M276.15 12.4436L279.879 9.46656C276.982 9.14753 275.792 10.7246 275.305 11.9728C273.042 11.0348 270.579 12.2641 270.579 12.2641L278.039 14.9678C277.663 13.9643 277.007 13.0887 276.15 12.4436Z" fill="#3F3D56"/>
<path d="M294.245 27.3664L297.974 24.3893C295.077 24.0703 293.887 25.6474 293.4 26.8956C291.137 25.9575 288.674 27.1869 288.674 27.1869L296.134 29.8906C295.758 28.8871 295.102 28.0115 294.245 27.3664Z" fill="#3F3D56"/>
<path d="M238.349 31.7771C244.553 31.7771 249.582 26.7562 249.582 20.5625C249.582 14.3689 244.553 9.34795 238.349 9.34795C232.144 9.34795 227.115 14.3689 227.115 20.5625C227.115 26.7562 232.144 31.7771 238.349 31.7771Z" fill="#FF6583"/>
<path d="M273.575 55.1199H218.466C218.397 55.1208 218.328 55.1154 218.26 55.1036L244.325 10.0359C244.484 9.75517 244.715 9.52161 244.994 9.3591C245.273 9.19659 245.59 9.11096 245.913 9.11096C246.236 9.11096 246.553 9.19659 246.832 9.3591C247.111 9.52161 247.342 9.75517 247.501 10.0359L264.993 40.2788L265.831 41.7257L273.575 55.1199Z" fill="#355D48"/>
<path d="M304.257 55.1205H256.594L265.829 41.7273L266.494 40.7622L278.529 23.3086C278.742 23.0416 279.009 22.8223 279.312 22.6649C279.616 22.5076 279.949 22.4157 280.29 22.3954C280.631 22.3751 280.973 22.4267 281.293 22.5468C281.613 22.667 281.904 22.8531 282.147 23.093C282.209 23.1611 282.267 23.2331 282.32 23.3086L304.257 55.1205Z" fill="#355D48"/>
<path d="M225.633 158.484C230.857 161.09 234.037 164.533 234.037 168.308C234.037 176.442 219.294 183.035 201.109 183.035C193.202 183.035 185.948 181.788 180.272 179.711C186.301 182.719 195.052 184.613 204.797 184.613C222.982 184.613 237.725 178.02 237.725 169.886C237.725 165.289 233.013 161.185 225.633 158.484Z" fill="#F1F1F1"/>
<path d="M237.252 164.071C243.146 167.012 246.735 170.896 246.735 175.156C246.735 184.334 230.1 191.774 209.579 191.774C200.657 191.774 192.472 190.367 186.067 188.023C192.87 191.417 202.746 193.555 213.74 193.555C234.261 193.555 250.896 186.115 250.896 176.937C250.896 171.749 245.579 167.118 237.252 164.071Z" fill="#F1F1F1"/>
<path d="M221.187 160.945C224.867 162.781 227.107 165.206 227.107 167.866C227.107 173.597 216.721 178.242 203.908 178.242C198.917 178.306 193.951 177.514 189.228 175.9C193.476 178.019 199.642 179.354 206.507 179.354C219.319 179.354 229.706 174.708 229.706 168.978C229.706 165.739 226.386 162.848 221.187 160.945Z" fill="#F1F1F1"/>
<path d="M169.479 159.893C169.479 159.893 170.287 171.693 193.469 171.693C216.651 171.693 223.572 159.893 223.572 159.893H169.479Z" fill="#3F3D56"/>
<path d="M202.383 128.932C199.036 126.394 194.836 125.247 190.661 125.731C194.392 126.629 197.686 128.81 199.967 131.891C202.248 134.972 203.368 138.757 203.132 142.581C202.896 146.405 201.319 150.024 198.677 152.802C196.035 155.581 192.497 157.342 188.684 157.776C192.331 158.655 196.17 158.253 199.556 156.639C202.941 155.024 205.667 152.296 207.274 148.911C208.882 145.527 209.273 141.693 208.382 138.055C207.491 134.416 205.373 131.195 202.383 128.932Z" fill="#3F3D56"/>
<path d="M194.786 123.601H193.206V161.161H194.786V123.601Z" fill="#3F3D56"/>
<path d="M298.66 95.6949L298.652 95.6805L298.63 94.763L303.582 87.586L298.636 94.0763L298.619 94.2702L298.449 86.9345L302.726 79.4935L298.437 85.6457L298.482 70.4478L298.482 70.3972L298.48 70.447L298.196 82.425L294.299 77.5595L298.184 83.4569L298.099 90.0186L294.512 83.6146L298.086 90.9833L298.038 94.6319L297.907 104.74L297.898 105.496C298.228 105.498 298.555 105.493 298.878 105.479L298.654 95.7699L298.66 95.6949Z" fill="#CBCBCB"/>
<path d="M274.952 98.8507L274.943 98.8362L274.922 97.9188L279.874 90.7418L274.928 97.2321L274.91 97.426L274.741 90.0902L279.018 82.6493L274.729 88.8015L274.773 73.6036L274.773 73.553L274.772 73.6027L274.488 85.5807L270.59 80.7153L274.475 86.6126L274.39 93.1744L270.803 86.7704L274.377 94.139L274.329 97.7877L274.198 107.896L274.189 108.651C274.519 108.654 274.846 108.649 275.17 108.635L274.946 98.9257L274.952 98.8507Z" fill="#CBCBCB"/>
<path d="M286.543 88.8574L286.534 88.8429L286.513 87.9255L291.464 80.7484L286.519 87.2388L286.501 87.4327L286.332 80.0969L290.609 72.656L286.32 78.8082L286.364 63.6103L286.364 63.5597L286.363 63.6094L286.079 75.5874L282.181 70.722L286.066 76.6193L285.981 83.1811L282.394 76.7771L285.968 84.1458L285.92 87.7944L285.789 97.9028L285.78 98.6582C286.11 98.6607 286.437 98.6552 286.761 98.6417L286.536 88.9324L286.543 88.8574Z" fill="#CBCBCB"/>
<path d="M90.7322 263.508C94.2239 263.508 97.0545 260.682 97.0545 257.196C97.0545 253.71 94.2239 250.885 90.7322 250.885C87.2405 250.885 84.4099 253.71 84.4099 257.196C84.4099 260.682 87.2405 263.508 90.7322 263.508Z" fill="#355D48"/>
<path d="M162.707 467.284C162.707 467.284 155.074 448.527 177.973 434.459L162.707 467.284Z" fill="#355D48"/>
<path d="M153.32 466.943C153.32 466.943 150.991 453.574 132.969 453.688L153.32 466.943Z" fill="#355D48"/>
<path d="M325.482 467.284C325.482 467.284 315.398 442.503 345.65 423.918L325.482 467.284Z" fill="#355D48"/>
<path d="M313.08 466.833C313.08 466.833 310.004 449.171 286.195 449.322L313.08 466.833Z" fill="#355D48"/>
<path d="M275.843 455.968L269.99 458.139L258.817 436.634L267.456 433.43L275.843 455.968Z" fill="#FFB7B7"/>
<path d="M279.444 461.078L260.571 468.078L260.483 467.84C259.759 465.895 259.838 463.743 260.704 461.856C261.57 459.97 263.151 458.505 265.099 457.782L276.626 453.506L279.444 461.078Z" fill="#2F2E41"/>
<path d="M218.242 462.036L211.998 462.035L209.028 437.992L218.243 437.993L218.242 462.036Z" fill="#FFB7B7"/>
<path d="M219.325 468.078L199.192 468.077V467.823C199.192 465.748 200.018 463.759 201.487 462.292C202.957 460.824 204.95 460 207.028 460L219.326 460.001L219.325 468.078Z" fill="#2F2E41"/>
<path d="M246.829 295.285L244.792 291.218L227.476 299.861L227.985 303.421L224.674 307.742C224.674 307.742 219.072 310.793 220.091 320.962L221.109 330.622L222.383 343.079L213.47 373.84L208.886 414.516L205.575 447.311L221.619 446.548L236.388 393.161L262.363 450.615L280.189 446.039L255.742 389.094L252.686 365.197C252.686 365.197 254.724 352.486 245.047 343.842L246.575 339.266V333.627L251.668 306.725L246.829 295.285Z" fill="#2F2E41"/>
<path opacity="0.2" d="M247.305 353.421L236.1 393.08L236.676 393.242L247.881 353.584L247.305 353.421Z" fill="black"/>
<path d="M246.32 343.079H221.364V345.622H246.32V343.079Z" fill="#3F3D56"/>
<path d="M221.364 347.147C221.927 347.147 222.383 346.009 222.383 344.605C222.383 343.201 221.927 342.062 221.364 342.062C220.801 342.062 220.345 343.201 220.345 344.605C220.345 346.009 220.801 347.147 221.364 347.147Z" fill="#3F3D56"/>
<path d="M239.13 288.71C245.709 285.119 248.127 276.885 244.53 270.317C240.934 263.749 232.685 261.335 226.106 264.926C219.527 268.516 217.11 276.751 220.706 283.318C224.302 289.886 232.551 292.3 239.13 288.71Z" fill="#FFB7B7"/>
<path d="M253.392 271.98C260.025 271.98 265.403 266.612 265.403 259.99C265.403 253.368 260.025 248 253.392 248C246.759 248 241.382 253.368 241.382 259.99C241.382 266.612 246.759 271.98 253.392 271.98Z" fill="#2F2E41"/>
<path d="M268.633 258.706C269.107 260.294 269.246 261.964 269.041 263.608C268.835 265.253 268.291 266.838 267.441 268.262C266.592 269.686 265.456 270.919 264.105 271.882C262.754 272.846 261.218 273.519 259.593 273.86C257.968 274.201 256.29 274.202 254.665 273.863C253.04 273.524 251.503 272.852 250.151 271.89C248.799 270.928 247.661 269.697 246.81 268.274C245.959 266.851 245.412 265.267 245.205 263.622C246.065 266.507 247.981 268.963 250.571 270.502C253.161 272.042 256.237 272.553 259.187 271.934C262.137 271.315 264.746 269.611 266.496 267.16C268.246 264.71 269.009 261.692 268.633 258.706Z" fill="#2F2E41"/>
<path d="M221.186 273.055C220.834 276.154 221.515 279.283 223.125 281.956C224.734 284.63 227.182 286.699 230.089 287.842C232.995 288.986 236.199 289.141 239.203 288.283C242.206 287.425 244.843 285.601 246.703 283.095C248.564 280.59 249.545 277.541 249.494 274.423C249.443 271.304 248.363 268.289 246.421 265.845C244.48 263.401 241.785 261.665 238.755 260.905C235.724 260.145 232.528 260.405 229.66 261.643C227.288 259.733 224.348 260.325 221.957 262.34C219.254 264.619 218.451 266.184 216.355 269.931C218.416 270.22 219.125 272.766 221.186 273.055Z" fill="#2F2E41"/>
<path d="M271.089 313.813C270.937 317.829 270.636 325.735 270.636 326.138C270.636 326.564 264.632 338.973 262.038 344.314V344.317C261.854 344.693 261.688 345.035 261.542 345.335C261.341 345.75 261.026 346.098 260.633 346.339C260.24 346.58 259.786 346.704 259.325 346.695L247.991 346.492C247.368 346.481 246.773 346.231 246.331 345.793C245.888 345.355 245.632 344.763 245.617 344.141L244.353 294.358C244.348 294.194 244.377 294.031 244.437 293.878C244.497 293.725 244.587 293.586 244.702 293.468C244.817 293.351 244.954 293.257 245.105 293.193C245.257 293.129 245.42 293.096 245.584 293.096H260.202C260.819 293.097 261.424 293.271 261.947 293.598C262.47 293.926 262.89 294.394 263.159 294.949L270.174 309.439C270.832 310.8 271.146 312.302 271.089 313.813Z" fill="#355D48"/>
<path d="M245.42 340.725C242.511 338.965 239.898 336.76 237.675 334.191C232.51 328.392 229.369 321.077 228.724 313.344C228.147 306.728 229.462 301.81 232.632 298.727C236.661 294.808 242.145 295.377 242.377 295.404L242.622 295.431L246.338 298.57L245.286 299.81L241.962 297.002C240.944 296.951 236.79 296.94 233.755 299.904C230.961 302.632 229.814 307.106 230.345 313.203C230.96 320.566 233.943 327.532 238.849 333.063C240.966 335.507 243.447 337.611 246.205 339.302L245.42 340.725Z" fill="#355D48"/>
<path d="M266.512 321.812L246.707 325.872L246.816 326.403L266.621 322.342L266.512 321.812Z" fill="#3F3D56"/>
<path d="M253.458 293.085L252.916 293.107L254.203 324.567L254.745 324.545L253.458 293.085Z" fill="#3F3D56"/>
<path d="M271.089 313.813C270.937 317.829 270.636 325.735 270.636 326.138C270.636 326.564 264.632 338.973 262.038 344.314L266.873 316.291C267.06 315.213 267.53 314.203 268.236 313.366C268.942 312.529 269.858 311.894 270.891 311.527C271.053 312.277 271.12 313.045 271.089 313.813Z" fill="#355D48"/>
<path d="M241.386 372.542C241.814 371.992 242.116 371.354 242.27 370.674C242.425 369.994 242.428 369.289 242.28 368.608C242.132 367.927 241.836 367.286 241.413 366.732C240.99 366.177 240.451 365.722 239.833 365.398L240.815 354.547L234.356 352.343L233.184 367.686C232.707 368.758 232.642 369.968 232.999 371.086C233.357 372.204 234.113 373.152 235.124 373.751C236.135 374.349 237.331 374.557 238.485 374.334C239.639 374.112 240.671 373.474 241.386 372.542Z" fill="#FFB7B7"/>
<path d="M242.23 362.043L230.784 361.628L231.268 306.523C231.26 304.964 231.743 303.442 232.649 302.171C233.555 300.901 234.837 299.947 236.316 299.444C237.698 298.985 239.191 298.984 240.573 299.44C242.141 299.97 243.488 301.006 244.4 302.384C245.313 303.763 245.74 305.406 245.614 307.054L242.23 362.043Z" fill="#CBCBCB"/>
<path d="M342.641 468.266H114.599C114.44 468.266 114.288 468.203 114.175 468.091C114.063 467.979 114 467.827 114 467.668C114 467.51 114.063 467.358 114.175 467.246C114.288 467.134 114.44 467.071 114.599 467.071H342.641C342.8 467.071 342.952 467.134 343.065 467.246C343.177 467.358 343.24 467.51 343.24 467.668C343.24 467.827 343.177 467.979 343.065 468.091C342.952 468.203 342.8 468.266 342.641 468.266Z" fill="#CBCBCB"/>
</svg>
